<svg width="16" height="16" viewBox="0 0 16 16" fill="none" xmlns="http://www.w3.org/2000/svg">
<path d="M14.2109 15.2703C14.5016 15.5609 14.9797 15.5609 15.2703 15.2703C15.5609 14.9797 15.5609 14.5016 15.2703 14.2109L9.05938 8L15.2703 1.78906C15.5609 1.49844 15.5609 1.02031 15.2703 0.729687C14.9797 0.439062 14.5016 0.439062 14.2109 0.729687L8 6.94062L1.78906 0.729687C1.49844 0.439062 1.02031 0.439062 0.729687 0.729687C0.439062 1.02031 0.439062 1.49844 0.729687 1.78906L6.94062 8L0.729687 14.2109C0.439062 14.5016 0.439062 14.9797 0.729687 15.2703C1.02031 15.5609 1.49844 15.5609 1.78906 15.2703L8 9.05938L14.2109 15.2703Z" fill="black"/>
</svg>
