<svg width="30" height="30" viewBox="0 0 30 30" fill="none" xmlns="http://www.w3.org/2000/svg">
<path d="M16.1895 23H10.6403C8.57729 23 6.90576 21.3209 6.90576 19.2654V13.7539C6.90576 11.6908 8.58482 10.0193 10.6403 10.0193H16.1895C18.2525 10.0193 19.9241 11.6983 19.9241 13.7539V19.2654C19.9241 21.3209 18.245 23 16.1895 23ZM10.6403 11.1487C9.20223 11.1487 8.03517 12.3158 8.03517 13.7539V19.2654C8.03517 20.7035 9.20223 21.8705 10.6403 21.8705H16.1895C17.6276 21.8705 18.7947 20.7035 18.7947 19.2654V13.7539C18.7947 12.3158 17.6276 11.1487 16.1895 11.1487H10.6403Z" fill="#4B4B4B"/>
<path d="M10.1057 9.44705C9.79701 9.44705 9.54102 9.19105 9.54102 8.88235V7.5647C9.54102 7.256 9.79701 7 10.1057 7C10.4144 7 10.6704 7.256 10.6704 7.5647V8.88235C10.6704 9.19105 10.4144 9.44705 10.1057 9.44705Z" fill="#4B4B4B"/>
<path d="M13.1179 9.44705C12.8092 9.44705 12.5532 9.19105 12.5532 8.88235V7.5647C12.5532 7.256 12.8092 7 13.1179 7C13.4266 7 13.6826 7.256 13.6826 7.5647V8.88235C13.6826 9.19105 13.4266 9.44705 13.1179 9.44705Z" fill="#4B4B4B"/>
<path d="M16.1292 9.44705C15.8205 9.44705 15.5645 9.19105 15.5645 8.88235V7.5647C15.5645 7.256 15.8205 7 16.1292 7C16.4379 7 16.6939 7.256 16.6939 7.5647V8.88235C16.6939 9.19105 16.4379 9.44705 16.1292 9.44705Z" fill="#4B4B4B"/>
<path d="M19.3591 19.5138C19.0504 19.5138 18.7944 19.2578 18.7944 18.9491V12.6094C18.7944 12.3007 19.0504 12.0447 19.3591 12.0447C21.4222 12.0447 23.0937 13.7237 23.0937 15.7793C23.0937 17.8348 21.4147 19.5138 19.3591 19.5138ZM19.9238 13.2343V18.3242C21.0909 18.0682 21.9643 17.0216 21.9643 15.7793C21.9643 14.5369 21.0909 13.4903 19.9238 13.2343Z" fill="#4B4B4B"/>
<path d="M19.1485 15.4707H7.47047C7.16176 15.4707 6.90576 15.2147 6.90576 14.906C6.90576 14.5973 7.16176 14.3413 7.47047 14.3413H19.1485C19.4573 14.3413 19.7133 14.5973 19.7133 14.906C19.7133 15.2147 19.4573 15.4707 19.1485 15.4707Z" fill="#4B4B4B"/>
</svg>
