<svg width="31" height="31" viewBox="0 0 31 31" fill="none" xmlns="http://www.w3.org/2000/svg">
<path fill-rule="evenodd" clip-rule="evenodd" d="M20.5422 0.9375H11.3326C2.92756 0.9375 0.937439 2.92762 0.937439 11.3327V20.5423C0.937439 28.9474 2.92756 30.9375 11.3326 30.9375H20.5422C28.9473 30.9375 30.9374 28.9474 30.9374 20.5423V11.3327C30.9374 2.92762 28.9473 0.9375 20.5422 0.9375ZM24.8401 10.4647C25.4964 10.4647 25.6446 10.8034 25.4964 11.2692C25.2651 12.3366 23.3444 15.1682 22.7495 16.0453C22.6365 16.2119 22.5713 16.308 22.5747 16.308C22.3418 16.6891 22.2571 16.8585 22.5747 17.2819C22.6895 17.4384 22.933 17.6773 23.2112 17.9503C23.4973 18.2311 23.8203 18.548 24.0779 18.8486C25.0094 19.9072 25.7293 20.7964 25.9198 21.4103C26.0892 22.0243 25.7928 22.3419 25.1576 22.3419H22.977C22.3991 22.3419 22.1012 22.01 21.4663 21.3027C21.1941 20.9994 20.86 20.6271 20.4152 20.1824C19.1238 18.9333 18.5521 18.7639 18.2346 18.7639C17.79 18.7639 17.6629 18.8698 17.6629 19.5049V21.4738C17.6629 22.0031 17.4936 22.3207 16.0962 22.3207C13.7886 22.3207 11.2268 20.9234 9.42723 18.3193C6.71728 14.5084 5.97627 11.6291 5.97627 11.0575C5.97627 10.7399 6.08213 10.4435 6.71727 10.4435H8.91911C9.46957 10.4435 9.68128 10.6764 9.893 11.2904C10.9727 14.4026 12.7723 17.1337 13.5133 17.1337C13.7886 17.1337 13.9156 17.0067 13.9156 16.308V13.0899C13.8633 12.1752 13.5449 11.7767 13.3088 11.4812C13.1623 11.2979 13.0476 11.1542 13.0476 10.9516C13.0476 10.6976 13.2593 10.4435 13.598 10.4435H17.0278C17.4936 10.4435 17.6629 10.6976 17.6629 11.248V15.5882C17.6629 16.0539 17.8535 16.2233 18.0017 16.2233C18.2769 16.2233 18.5098 16.0539 19.0179 15.5458C20.5846 13.7886 21.7067 11.0786 21.7067 11.0786C21.8549 10.7611 22.1089 10.4647 22.6594 10.4647H24.8401Z" fill="#4B4B4B"/>
</svg>
