<svg width="30" height="30" viewBox="0 0 30 30" fill="none" xmlns="http://www.w3.org/2000/svg">
<path fill-rule="evenodd" clip-rule="evenodd" d="M12.4999 14.5C12.2237 14.5 11.9999 14.2761 11.9999 14L11.9999 10C11.9999 8.34315 13.343 7 14.9999 7C16.6567 7 17.9999 8.34315 17.9999 10L17.9999 14C17.9999 14.2761 17.776 14.5 17.4999 14.5C17.2237 14.5 16.9999 14.2761 16.9999 14L16.9999 10C16.9999 8.89543 16.1044 8 14.9999 8C13.8953 8 12.9999 8.89543 12.9999 10L12.9999 14C12.9999 14.2761 12.776 14.5 12.4999 14.5Z" fill="black"/>
<path fill-rule="evenodd" clip-rule="evenodd" d="M20.5879 12.8218L21.4902 21.2429C21.5335 21.6473 21.2166 22 20.8099 22H9.40051C8.99378 22 8.67686 21.6473 8.72019 21.2429L9.62245 12.8218C9.6597 12.4741 9.95311 12.2104 10.3028 12.2104H19.9076C20.2573 12.2104 20.5507 12.4741 20.5879 12.8218ZM21.5822 12.7152L22.4845 21.1363C22.5911 22.1318 21.811 23 20.8099 23H9.40051C8.39934 23 7.61922 22.1318 7.72588 21.1363L8.62814 12.7152C8.71984 11.8594 9.44206 11.2104 10.3028 11.2104H19.9076C20.7683 11.2104 21.4905 11.8594 21.5822 12.7152Z" fill="black"/>
</svg>
