<svg width="22" height="17" viewBox="0 0 22 17" fill="none" xmlns="http://www.w3.org/2000/svg">
<path d="M0.5 0.75C0.5 0.3375 0.8375 0 1.25 0H20.75C21.1625 0 21.5 0.3375 21.5 0.75C21.5 1.1625 21.1625 1.5 20.75 1.5H1.25C0.8375 1.5 0.5 1.1625 0.5 0.75ZM0.5 8.25C0.5 7.8375 0.8375 7.5 1.25 7.5H20.75C21.1625 7.5 21.5 7.8375 21.5 8.25C21.5 8.6625 21.1625 9 20.75 9H1.25C0.8375 9 0.5 8.6625 0.5 8.25ZM21.5 15.75C21.5 16.1625 21.1625 16.5 20.75 16.5H1.25C0.8375 16.5 0.5 16.1625 0.5 15.75C0.5 15.3375 0.8375 15 1.25 15H20.75C21.1625 15 21.5 15.3375 21.5 15.75Z" fill="black"/>
</svg>
