<svg width="30" height="30" viewBox="0 0 30 30" fill="none" xmlns="http://www.w3.org/2000/svg">
<path d="M14.3225 16.3913H13.1773C12.2992 16.3913 11.5892 15.6583 11.5892 14.7497C11.5892 14.4367 11.8488 14.1771 12.1618 14.1771C12.4748 14.1771 12.7344 14.4367 12.7344 14.7497C12.7344 15.0246 12.9329 15.246 13.1773 15.246H14.3225C14.4981 15.246 14.6356 15.0857 14.6356 14.8872C14.6356 14.6199 14.5898 14.6047 14.4141 14.5436L12.5741 13.9023C11.9099 13.6732 11.5815 13.2075 11.5815 12.4821C11.5815 11.6575 12.2382 10.978 13.0398 10.978H14.1851C15.0631 10.978 15.7732 11.711 15.7732 12.6196C15.7732 12.9326 15.5136 13.1922 15.2006 13.1922C14.8875 13.1922 14.6279 12.9326 14.6279 12.6196C14.6279 12.3447 14.4294 12.1233 14.1851 12.1233H13.0398C12.8642 12.1233 12.7268 12.2836 12.7268 12.4821C12.7268 12.7494 12.7726 12.7646 12.9482 12.8257L14.7883 13.4671C15.4525 13.7037 15.7732 14.1695 15.7732 14.8872C15.7808 15.7194 15.1242 16.3913 14.3225 16.3913Z" fill="#4B4B4B"/>
<path d="M13.681 17.002C13.368 17.002 13.1084 16.7424 13.1084 16.4294V15.8644C13.1084 15.5513 13.368 15.2917 13.681 15.2917C13.9941 15.2917 14.2537 15.5513 14.2537 15.8644V16.4294C14.2537 16.75 13.9941 17.002 13.681 17.002Z" fill="#4B4B4B"/>
<path d="M13.681 12.1155C13.368 12.1155 13.1084 11.856 13.1084 11.5429V10.9474C13.1084 10.6343 13.368 10.3748 13.681 10.3748C13.9941 10.3748 14.2537 10.6343 14.2537 10.9474V11.5429C14.2537 11.856 13.9941 12.1155 13.681 12.1155Z" fill="#4B4B4B"/>
<path d="M13.673 20.3461C9.99294 20.3461 7 17.3531 7 13.673C7 9.99294 9.99294 7 13.673 7C17.3531 7 20.3461 9.99294 20.3461 13.673C20.3461 17.3531 17.3455 20.3461 13.673 20.3461ZM13.673 8.15289C10.6266 8.15289 8.14526 10.6343 8.14526 13.6807C8.14526 16.727 10.6266 19.2008 13.673 19.2008C16.7194 19.2008 19.2008 16.7194 19.2008 13.673C19.2008 10.6266 16.7194 8.15289 13.673 8.15289Z" fill="#4B4B4B"/>
<path d="M18.6565 23C17.2467 23 15.9208 22.3137 15.1054 21.1547C14.9225 20.8955 14.9835 20.5371 15.2426 20.3541C15.5017 20.1711 15.8598 20.2321 16.0427 20.4914C16.6447 21.3454 17.6201 21.8486 18.6565 21.8486C20.4244 21.8486 21.857 20.4151 21.857 18.6461C21.857 17.6167 21.354 16.6407 20.5158 16.0384C20.2567 15.8554 20.2034 15.497 20.3863 15.2377C20.5691 14.9785 20.9273 14.9251 21.1864 15.1081C22.3218 15.924 23 17.2431 23 18.6461C23 21.0556 21.0568 23 18.6565 23Z" fill="#4B4B4B"/>
</svg>
