<svg width="31" height="31" viewBox="0 0 31 31" fill="none" xmlns="http://www.w3.org/2000/svg">
<path fill-rule="evenodd" clip-rule="evenodd" d="M20.5422 0.9375H11.3326C2.92756 0.9375 0.937439 2.92762 0.937439 11.3327V20.5423C0.937439 28.9474 2.92756 30.9375 11.3326 30.9375H20.5422C28.9473 30.9375 30.9374 28.9474 30.9374 20.5423V11.3327C30.9374 2.92762 28.9473 0.9375 20.5422 0.9375ZM12.577 7.9234C13.4304 7.88456 13.7031 7.87506 15.8757 7.87506H15.8733C18.0466 7.87506 18.3183 7.88456 19.1716 7.9234C20.0233 7.9624 20.605 8.09723 21.115 8.29507C21.6416 8.49923 22.0866 8.77257 22.5317 9.21758C22.9767 9.66225 23.25 10.1086 23.455 10.6348C23.6517 11.1434 23.7867 11.7248 23.8267 12.5764C23.865 13.4298 23.875 13.7025 23.875 15.8751C23.875 18.0478 23.865 18.3198 23.8267 19.1732C23.7867 20.0245 23.6517 20.606 23.455 21.1149C23.25 21.6409 22.9767 22.0872 22.5317 22.5319C22.0871 22.9769 21.6415 23.2509 21.1155 23.4552C20.6065 23.6531 20.0245 23.7879 19.1728 23.8269C18.3194 23.8657 18.0476 23.8752 15.8747 23.8752C13.7022 23.8752 13.4297 23.8657 12.5764 23.8269C11.7249 23.7879 11.1434 23.6531 10.6344 23.4552C10.1085 23.2509 9.66219 22.9769 9.21768 22.5319C8.77284 22.0872 8.49951 21.6409 8.295 21.1147C8.09734 20.606 7.9625 20.0247 7.92333 19.173C7.88467 18.3197 7.875 18.0478 7.875 15.8751C7.875 13.7025 7.885 13.4296 7.92317 12.5763C7.9615 11.7249 8.0965 11.1434 8.29484 10.6346C8.49984 10.1086 8.77318 9.66225 9.21818 9.21758C9.66285 8.77274 10.1092 8.4994 10.6354 8.29507C11.144 8.09723 11.7254 7.9624 12.577 7.9234Z" fill="#4B4B4B"/>
<path fill-rule="evenodd" clip-rule="evenodd" d="M15.2831 9.4417C15.4224 9.44148 15.5723 9.44155 15.7341 9.44162L16.0007 9.4417C18.1367 9.4417 18.3899 9.44936 19.2334 9.4877C20.0134 9.52336 20.4368 9.6537 20.7188 9.7632C21.0921 9.9082 21.3583 10.0815 21.6381 10.3615C21.9181 10.6415 22.0915 10.9082 22.2368 11.2815C22.3463 11.5632 22.4768 11.9866 22.5123 12.7666C22.5506 13.6099 22.559 13.8632 22.559 15.9983C22.559 18.1333 22.5506 18.3866 22.5123 19.23C22.4766 20.01 22.3463 20.4333 22.2368 20.715C22.0918 21.0883 21.9181 21.3542 21.6381 21.634C21.3581 21.914 21.0923 22.0873 20.7188 22.2323C20.4371 22.3423 20.0134 22.4723 19.2334 22.508C18.3901 22.5463 18.1367 22.5547 16.0007 22.5547C13.8645 22.5547 13.6114 22.5463 12.768 22.508C11.988 22.472 11.5647 22.3417 11.2825 22.2322C10.9092 22.0872 10.6425 21.9138 10.3625 21.6338C10.0825 21.3538 9.90916 21.0878 9.76383 20.7143C9.65432 20.4326 9.52382 20.0093 9.48832 19.2293C9.44999 18.386 9.44232 18.1326 9.44232 15.9963C9.44232 13.8599 9.44999 13.6079 9.48832 12.7646C9.52399 11.9846 9.65432 11.5612 9.76383 11.2792C9.90883 10.9059 10.0825 10.6392 10.3625 10.3592C10.6425 10.0792 10.9092 9.90587 11.2825 9.76053C11.5645 9.65053 11.988 9.52053 12.768 9.4847C13.506 9.45136 13.792 9.44136 15.2831 9.4397V9.4417ZM20.2711 10.77C19.7411 10.77 19.3111 11.1995 19.3111 11.7297C19.3111 12.2597 19.7411 12.6897 20.2711 12.6897C20.8011 12.6897 21.2311 12.2597 21.2311 11.7297C21.2311 11.1997 20.8011 10.7697 20.2711 10.7697V10.77ZM11.8923 16.0001C11.8923 13.7313 13.7318 11.8918 16.0006 11.8917C18.2694 11.8917 20.1084 13.7312 20.1084 16.0001C20.1084 18.269 18.2696 20.1076 16.0007 20.1076C13.7319 20.1076 11.8923 18.269 11.8923 16.0001Z" fill="#4B4B4B"/>
<path d="M16.0007 13.3335C17.4734 13.3335 18.6674 14.5273 18.6674 16.0002C18.6674 17.4729 17.4734 18.6669 16.0007 18.6669C14.5279 18.6669 13.334 17.4729 13.334 16.0002C13.334 14.5273 14.5279 13.3335 16.0007 13.3335Z" fill="#4B4B4B"/>
</svg>
