<svg width="10" height="12" viewBox="0 0 10 12" fill="none" xmlns="http://www.w3.org/2000/svg">
<path d="M1.68236 10.8847C1.38531 10.6036 1.18444 10.2822 1.01712 9.93646C0.929538 9.75554 0.85153 9.57119 0.785204 9.38376C0.662751 9.03742 0.574149 8.68179 0.505349 8.32234C0.459333 8.0802 0.428347 7.83654 0.398258 7.5926C0.38748 7.50384 0.384816 7.41434 0.376448 7.32563C0.354713 7.093 0.351044 6.86011 0.350399 6.62789C0.349836 6.33845 0.364362 6.05051 0.382798 5.76234C0.413989 5.28017 0.478748 4.80498 0.573718 4.3346C0.658801 3.91281 0.780236 3.50199 0.928059 3.10041C1.01039 2.87614 1.10428 2.65753 1.20758 2.44241C1.35979 2.12615 1.53272 1.82234 1.73707 1.53873C1.89422 1.32075 2.07247 1.11855 2.27501 0.942422C2.48438 0.760707 2.70948 0.598275 2.96314 0.479172C3.06311 0.432043 3.43859 0.25871 3.97007 0.207706C4.66718 0.140981 5.20507 0.32442 5.75418 0.511391C6.44669 0.747259 6.94992 1.05199 7.23376 1.22713C7.44564 1.35748 7.65227 1.49677 7.85301 1.64316C8.00121 1.75119 8.14738 1.86368 8.28651 1.98568C8.46181 2.13971 8.64507 2.28516 8.80354 2.45663C9.1257 2.80419 9.42233 3.17113 9.63311 3.59812C9.73755 3.80949 9.80958 4.02685 9.80308 4.26314C9.79707 4.46331 9.73551 4.641 9.62267 4.79991C9.42338 5.08031 9.14917 5.25744 8.81814 5.34762C8.59017 5.4097 8.36612 5.3806 8.15257 5.25684C7.96368 5.14712 7.8238 4.98656 7.68861 4.82006C7.44203 4.51736 7.28753 4.16496 7.11962 3.81983C6.84251 3.25088 6.61376 2.66 6.31067 2.10229C6.1735 1.84992 6.06222 1.6589 5.87337 1.4281C5.70057 1.2169 5.46955 0.9404 5.10233 0.7823C4.9699 0.725487 4.85432 0.698522 4.82045 0.691231C4.64561 0.65286 4.46778 0.645754 4.2869 0.667501C3.86924 0.717126 3.49988 0.880035 3.15645 1.1055C3.01848 1.19615 2.89009 1.29875 2.76636 1.40896C2.36971 1.76198 2.09871 2.19396 1.95217 2.7073C1.89666 2.90168 1.87742 3.10278 1.86394 3.30612C1.84697 3.56148 1.87573 3.81474 1.91022 4.0678C1.94041 4.28645 1.99494 4.50165 2.05574 4.71488C2.10782 4.89751 2.17308 5.07678 2.23593 5.25601C2.35171 5.58446 2.49111 5.90403 2.64245 6.21842C2.74889 6.43947 2.85982 6.6591 2.97521 6.8761C3.21195 7.32137 3.45315 7.76402 3.69167 8.20812C3.83391 8.47324 3.97196 8.74008 4.11628 9.00374C4.24344 9.23663 4.36223 9.47298 4.46819 9.716C4.59403 10.0049 4.68451 10.3027 4.72702 10.6117C4.7477 10.7599 4.75486 10.9095 4.7189 11.0566C4.65589 11.3144 4.49628 11.4839 4.25549 11.5833C4.08251 11.6549 3.90123 11.6869 3.71164 11.6946C3.39595 11.7074 3.09055 11.6454 2.78816 11.5533C2.50881 11.4683 2.2491 11.3409 2.00816 11.1721C1.88265 11.0844 1.77042 10.9822 1.68026 10.8849L1.68236 10.8847Z" fill="white"/>
</svg>
