<svg width="0" height="0" class="hidden">
  <symbol fill="none" xmlns="http://www.w3.org/2000/svg" viewBox="0 0 30 30" id="bag">
    <path fill-rule="evenodd" clip-rule="evenodd" d="M12.4999 14.5C12.2237 14.5 11.9999 14.2761 11.9999 14L11.9999 10C11.9999 8.34315 13.343 7 14.9999 7C16.6567 7 17.9999 8.34315 17.9999 10L17.9999 14C17.9999 14.2761 17.776 14.5 17.4999 14.5C17.2237 14.5 16.9999 14.2761 16.9999 14L16.9999 10C16.9999 8.89543 16.1044 8 14.9999 8C13.8953 8 12.9999 8.89543 12.9999 10L12.9999 14C12.9999 14.2761 12.776 14.5 12.4999 14.5Z" fill="black"></path>
    <path fill-rule="evenodd" clip-rule="evenodd" d="M20.5879 12.8218L21.4902 21.2429C21.5335 21.6473 21.2166 22 20.8099 22H9.40051C8.99378 22 8.67686 21.6473 8.72019 21.2429L9.62245 12.8218C9.6597 12.4741 9.95311 12.2104 10.3028 12.2104H19.9076C20.2573 12.2104 20.5507 12.4741 20.5879 12.8218ZM21.5822 12.7152L22.4845 21.1363C22.5911 22.1318 21.811 23 20.8099 23H9.40051C8.39934 23 7.61922 22.1318 7.72588 21.1363L8.62814 12.7152C8.71984 11.8594 9.44206 11.2104 10.3028 11.2104H19.9076C20.7683 11.2104 21.4905 11.8594 21.5822 12.7152Z" fill="black"></path>
  </symbol>
  <symbol fill="none" xmlns="http://www.w3.org/2000/svg" viewBox="0 0 22 17" id="burger">
    <path d="M0.5 0.75C0.5 0.3375 0.8375 0 1.25 0H20.75C21.1625 0 21.5 0.3375 21.5 0.75C21.5 1.1625 21.1625 1.5 20.75 1.5H1.25C0.8375 1.5 0.5 1.1625 0.5 0.75ZM0.5 8.25C0.5 7.8375 0.8375 7.5 1.25 7.5H20.75C21.1625 7.5 21.5 7.8375 21.5 8.25C21.5 8.6625 21.1625 9 20.75 9H1.25C0.8375 9 0.5 8.6625 0.5 8.25ZM21.5 15.75C21.5 16.1625 21.1625 16.5 20.75 16.5H1.25C0.8375 16.5 0.5 16.1625 0.5 15.75C0.5 15.3375 0.8375 15 1.25 15H20.75C21.1625 15 21.5 15.3375 21.5 15.75Z" fill="black"></path>
  </symbol>
  <symbol fill="none" xmlns="http://www.w3.org/2000/svg" viewBox="0 0 12 20" id="Chevron">
    <path d="M0.610352 10.0068C0.615885 9.81315 0.654622 9.63607 0.726562 9.47559C0.798503 9.3151 0.90918 9.16016 1.05859 9.01074L9.37598 0.958984C9.61393 0.721029 9.90723 0.602051 10.2559 0.602051C10.4883 0.602051 10.6986 0.657389 10.8867 0.768066C11.0804 0.878743 11.2326 1.02816 11.3433 1.21631C11.4595 1.40446 11.5176 1.61475 11.5176 1.84717C11.5176 2.19027 11.3875 2.49186 11.1274 2.75195L3.60693 9.99854L11.1274 17.2534C11.3875 17.519 11.5176 17.8206 11.5176 18.1582C11.5176 18.3962 11.4595 18.6092 11.3433 18.7974C11.2326 18.9855 11.0804 19.1349 10.8867 19.2456C10.6986 19.3618 10.4883 19.4199 10.2559 19.4199C9.90723 19.4199 9.61393 19.2982 9.37598 19.0547L1.05859 11.0029C0.903646 10.8535 0.790202 10.6986 0.718262 10.5381C0.646322 10.3721 0.610352 10.195 0.610352 10.0068Z" fill="black"></path>
  </symbol>
  <symbol fill="none" xmlns="http://www.w3.org/2000/svg" viewBox="0 0 16 16" id="close">
    <path d="M14.2109 15.2703C14.5016 15.5609 14.9797 15.5609 15.2703 15.2703C15.5609 14.9797 15.5609 14.5016 15.2703 14.2109L9.05938 8L15.2703 1.78906C15.5609 1.49844 15.5609 1.02031 15.2703 0.729687C14.9797 0.439062 14.5016 0.439062 14.2109 0.729687L8 6.94062L1.78906 0.729687C1.49844 0.439062 1.02031 0.439062 0.729687 0.729687C0.439062 1.02031 0.439062 1.49844 0.729687 1.78906L6.94062 8L0.729687 14.2109C0.439062 14.5016 0.439062 14.9797 0.729687 15.2703C1.02031 15.5609 1.49844 15.5609 1.78906 15.2703L8 9.05938L14.2109 15.2703Z" fill="black"></path>
  </symbol>
  <symbol fill="none" xmlns="http://www.w3.org/2000/svg" viewBox="0 0 30 30" id="coffee">
    <path d="M16.1895 23H10.6403C8.57729 23 6.90576 21.3209 6.90576 19.2654V13.7539C6.90576 11.6908 8.58482 10.0193 10.6403 10.0193H16.1895C18.2525 10.0193 19.9241 11.6983 19.9241 13.7539V19.2654C19.9241 21.3209 18.245 23 16.1895 23ZM10.6403 11.1487C9.20223 11.1487 8.03517 12.3158 8.03517 13.7539V19.2654C8.03517 20.7035 9.20223 21.8705 10.6403 21.8705H16.1895C17.6276 21.8705 18.7947 20.7035 18.7947 19.2654V13.7539C18.7947 12.3158 17.6276 11.1487 16.1895 11.1487H10.6403Z" fill="#4B4B4B"></path>
    <path d="M10.1057 9.44705C9.79701 9.44705 9.54102 9.19105 9.54102 8.88235V7.5647C9.54102 7.256 9.79701 7 10.1057 7C10.4144 7 10.6704 7.256 10.6704 7.5647V8.88235C10.6704 9.19105 10.4144 9.44705 10.1057 9.44705Z" fill="#4B4B4B"></path>
    <path d="M13.1179 9.44705C12.8092 9.44705 12.5532 9.19105 12.5532 8.88235V7.5647C12.5532 7.256 12.8092 7 13.1179 7C13.4266 7 13.6826 7.256 13.6826 7.5647V8.88235C13.6826 9.19105 13.4266 9.44705 13.1179 9.44705Z" fill="#4B4B4B"></path>
    <path d="M16.1292 9.44705C15.8205 9.44705 15.5645 9.19105 15.5645 8.88235V7.5647C15.5645 7.256 15.8205 7 16.1292 7C16.4379 7 16.6939 7.256 16.6939 7.5647V8.88235C16.6939 9.19105 16.4379 9.44705 16.1292 9.44705Z" fill="#4B4B4B"></path>
    <path d="M19.3591 19.5138C19.0504 19.5138 18.7944 19.2578 18.7944 18.9491V12.6094C18.7944 12.3007 19.0504 12.0447 19.3591 12.0447C21.4222 12.0447 23.0937 13.7237 23.0937 15.7793C23.0937 17.8348 21.4147 19.5138 19.3591 19.5138ZM19.9238 13.2343V18.3242C21.0909 18.0682 21.9643 17.0216 21.9643 15.7793C21.9643 14.5369 21.0909 13.4903 19.9238 13.2343Z" fill="#4B4B4B"></path>
    <path d="M19.1485 15.4707H7.47047C7.16176 15.4707 6.90576 15.2147 6.90576 14.906C6.90576 14.5973 7.16176 14.3413 7.47047 14.3413H19.1485C19.4573 14.3413 19.7133 14.5973 19.7133 14.906C19.7133 15.2147 19.4573 15.4707 19.1485 15.4707Z" fill="#4B4B4B"></path>
  </symbol>
  <symbol fill="none" xmlns="http://www.w3.org/2000/svg" viewBox="0 0 30 30" id="coin">
    <path d="M14.3225 16.3913H13.1773C12.2992 16.3913 11.5892 15.6583 11.5892 14.7497C11.5892 14.4367 11.8488 14.1771 12.1618 14.1771C12.4748 14.1771 12.7344 14.4367 12.7344 14.7497C12.7344 15.0246 12.9329 15.246 13.1773 15.246H14.3225C14.4981 15.246 14.6356 15.0857 14.6356 14.8872C14.6356 14.6199 14.5898 14.6047 14.4141 14.5436L12.5741 13.9023C11.9099 13.6732 11.5815 13.2075 11.5815 12.4821C11.5815 11.6575 12.2382 10.978 13.0398 10.978H14.1851C15.0631 10.978 15.7732 11.711 15.7732 12.6196C15.7732 12.9326 15.5136 13.1922 15.2006 13.1922C14.8875 13.1922 14.6279 12.9326 14.6279 12.6196C14.6279 12.3447 14.4294 12.1233 14.1851 12.1233H13.0398C12.8642 12.1233 12.7268 12.2836 12.7268 12.4821C12.7268 12.7494 12.7726 12.7646 12.9482 12.8257L14.7883 13.4671C15.4525 13.7037 15.7732 14.1695 15.7732 14.8872C15.7808 15.7194 15.1242 16.3913 14.3225 16.3913Z" fill="#4B4B4B"></path>
    <path d="M13.681 17.002C13.368 17.002 13.1084 16.7424 13.1084 16.4294V15.8644C13.1084 15.5513 13.368 15.2917 13.681 15.2917C13.9941 15.2917 14.2537 15.5513 14.2537 15.8644V16.4294C14.2537 16.75 13.9941 17.002 13.681 17.002Z" fill="#4B4B4B"></path>
    <path d="M13.681 12.1155C13.368 12.1155 13.1084 11.856 13.1084 11.5429V10.9474C13.1084 10.6343 13.368 10.3748 13.681 10.3748C13.9941 10.3748 14.2537 10.6343 14.2537 10.9474V11.5429C14.2537 11.856 13.9941 12.1155 13.681 12.1155Z" fill="#4B4B4B"></path>
    <path d="M13.673 20.3461C9.99294 20.3461 7 17.3531 7 13.673C7 9.99294 9.99294 7 13.673 7C17.3531 7 20.3461 9.99294 20.3461 13.673C20.3461 17.3531 17.3455 20.3461 13.673 20.3461ZM13.673 8.15289C10.6266 8.15289 8.14526 10.6343 8.14526 13.6807C8.14526 16.727 10.6266 19.2008 13.673 19.2008C16.7194 19.2008 19.2008 16.7194 19.2008 13.673C19.2008 10.6266 16.7194 8.15289 13.673 8.15289Z" fill="#4B4B4B"></path>
    <path d="M18.6565 23C17.2467 23 15.9208 22.3137 15.1054 21.1547C14.9225 20.8955 14.9835 20.5371 15.2426 20.3541C15.5017 20.1711 15.8598 20.2321 16.0427 20.4914C16.6447 21.3454 17.6201 21.8486 18.6565 21.8486C20.4244 21.8486 21.857 20.4151 21.857 18.6461C21.857 17.6167 21.354 16.6407 20.5158 16.0384C20.2567 15.8554 20.2034 15.497 20.3863 15.2377C20.5691 14.9785 20.9273 14.9251 21.1864 15.1081C22.3218 15.924 23 17.2431 23 18.6461C23 21.0556 21.0568 23 18.6565 23Z" fill="#4B4B4B"></path>
  </symbol>
  <symbol fill="none" xmlns="http://www.w3.org/2000/svg" viewBox="0 0 31 31" id="inst">
    <path fill-rule="evenodd" clip-rule="evenodd" d="M20.5422 0.9375H11.3326C2.92756 0.9375 0.937439 2.92762 0.937439 11.3327V20.5423C0.937439 28.9474 2.92756 30.9375 11.3326 30.9375H20.5422C28.9473 30.9375 30.9374 28.9474 30.9374 20.5423V11.3327C30.9374 2.92762 28.9473 0.9375 20.5422 0.9375ZM12.577 7.9234C13.4304 7.88456 13.7031 7.87506 15.8757 7.87506H15.8733C18.0466 7.87506 18.3183 7.88456 19.1716 7.9234C20.0233 7.9624 20.605 8.09723 21.115 8.29507C21.6416 8.49923 22.0866 8.77257 22.5317 9.21758C22.9767 9.66225 23.25 10.1086 23.455 10.6348C23.6517 11.1434 23.7867 11.7248 23.8267 12.5764C23.865 13.4298 23.875 13.7025 23.875 15.8751C23.875 18.0478 23.865 18.3198 23.8267 19.1732C23.7867 20.0245 23.6517 20.606 23.455 21.1149C23.25 21.6409 22.9767 22.0872 22.5317 22.5319C22.0871 22.9769 21.6415 23.2509 21.1155 23.4552C20.6065 23.6531 20.0245 23.7879 19.1728 23.8269C18.3194 23.8657 18.0476 23.8752 15.8747 23.8752C13.7022 23.8752 13.4297 23.8657 12.5764 23.8269C11.7249 23.7879 11.1434 23.6531 10.6344 23.4552C10.1085 23.2509 9.66219 22.9769 9.21768 22.5319C8.77284 22.0872 8.49951 21.6409 8.295 21.1147C8.09734 20.606 7.9625 20.0247 7.92333 19.173C7.88467 18.3197 7.875 18.0478 7.875 15.8751C7.875 13.7025 7.885 13.4296 7.92317 12.5763C7.9615 11.7249 8.0965 11.1434 8.29484 10.6346C8.49984 10.1086 8.77318 9.66225 9.21818 9.21758C9.66285 8.77274 10.1092 8.4994 10.6354 8.29507C11.144 8.09723 11.7254 7.9624 12.577 7.9234Z" fill="#4B4B4B"></path>
    <path fill-rule="evenodd" clip-rule="evenodd" d="M15.2831 9.4417C15.4224 9.44148 15.5723 9.44155 15.7341 9.44162L16.0007 9.4417C18.1367 9.4417 18.3899 9.44936 19.2334 9.4877C20.0134 9.52336 20.4368 9.6537 20.7188 9.7632C21.0921 9.9082 21.3583 10.0815 21.6381 10.3615C21.9181 10.6415 22.0915 10.9082 22.2368 11.2815C22.3463 11.5632 22.4768 11.9866 22.5123 12.7666C22.5506 13.6099 22.559 13.8632 22.559 15.9983C22.559 18.1333 22.5506 18.3866 22.5123 19.23C22.4766 20.01 22.3463 20.4333 22.2368 20.715C22.0918 21.0883 21.9181 21.3542 21.6381 21.634C21.3581 21.914 21.0923 22.0873 20.7188 22.2323C20.4371 22.3423 20.0134 22.4723 19.2334 22.508C18.3901 22.5463 18.1367 22.5547 16.0007 22.5547C13.8645 22.5547 13.6114 22.5463 12.768 22.508C11.988 22.472 11.5647 22.3417 11.2825 22.2322C10.9092 22.0872 10.6425 21.9138 10.3625 21.6338C10.0825 21.3538 9.90916 21.0878 9.76383 20.7143C9.65432 20.4326 9.52382 20.0093 9.48832 19.2293C9.44999 18.386 9.44232 18.1326 9.44232 15.9963C9.44232 13.8599 9.44999 13.6079 9.48832 12.7646C9.52399 11.9846 9.65432 11.5612 9.76383 11.2792C9.90883 10.9059 10.0825 10.6392 10.3625 10.3592C10.6425 10.0792 10.9092 9.90587 11.2825 9.76053C11.5645 9.65053 11.988 9.52053 12.768 9.4847C13.506 9.45136 13.792 9.44136 15.2831 9.4397V9.4417ZM20.2711 10.77C19.7411 10.77 19.3111 11.1995 19.3111 11.7297C19.3111 12.2597 19.7411 12.6897 20.2711 12.6897C20.8011 12.6897 21.2311 12.2597 21.2311 11.7297C21.2311 11.1997 20.8011 10.7697 20.2711 10.7697V10.77ZM11.8923 16.0001C11.8923 13.7313 13.7318 11.8918 16.0006 11.8917C18.2694 11.8917 20.1084 13.7312 20.1084 16.0001C20.1084 18.269 18.2696 20.1076 16.0007 20.1076C13.7319 20.1076 11.8923 18.269 11.8923 16.0001Z" fill="#4B4B4B"></path>
    <path d="M16.0007 13.3335C17.4734 13.3335 18.6674 14.5273 18.6674 16.0002C18.6674 17.4729 17.4734 18.6669 16.0007 18.6669C14.5279 18.6669 13.334 17.4729 13.334 16.0002C13.334 14.5273 14.5279 13.3335 16.0007 13.3335Z" fill="#4B4B4B"></path>
  </symbol>
  <symbol fill="none" xmlns="http://www.w3.org/2000/svg" viewBox="0 0 10 12" id="points">
    <path d="M1.68236 10.8847C1.38531 10.6036 1.18444 10.2822 1.01712 9.93646C0.929538 9.75554 0.85153 9.57119 0.785204 9.38376C0.662751 9.03742 0.574149 8.68179 0.505349 8.32234C0.459333 8.0802 0.428347 7.83654 0.398258 7.5926C0.38748 7.50384 0.384816 7.41434 0.376448 7.32563C0.354713 7.093 0.351044 6.86011 0.350399 6.62789C0.349836 6.33845 0.364362 6.05051 0.382798 5.76234C0.413989 5.28017 0.478748 4.80498 0.573718 4.3346C0.658801 3.91281 0.780236 3.50199 0.928059 3.10041C1.01039 2.87614 1.10428 2.65753 1.20758 2.44241C1.35979 2.12615 1.53272 1.82234 1.73707 1.53873C1.89422 1.32075 2.07247 1.11855 2.27501 0.942422C2.48438 0.760707 2.70948 0.598275 2.96314 0.479172C3.06311 0.432043 3.43859 0.25871 3.97007 0.207706C4.66718 0.140981 5.20507 0.32442 5.75418 0.511391C6.44669 0.747259 6.94992 1.05199 7.23376 1.22713C7.44564 1.35748 7.65227 1.49677 7.85301 1.64316C8.00121 1.75119 8.14738 1.86368 8.28651 1.98568C8.46181 2.13971 8.64507 2.28516 8.80354 2.45663C9.1257 2.80419 9.42233 3.17113 9.63311 3.59812C9.73755 3.80949 9.80958 4.02685 9.80308 4.26314C9.79707 4.46331 9.73551 4.641 9.62267 4.79991C9.42338 5.08031 9.14917 5.25744 8.81814 5.34762C8.59017 5.4097 8.36612 5.3806 8.15257 5.25684C7.96368 5.14712 7.8238 4.98656 7.68861 4.82006C7.44203 4.51736 7.28753 4.16496 7.11962 3.81983C6.84251 3.25088 6.61376 2.66 6.31067 2.10229C6.1735 1.84992 6.06222 1.6589 5.87337 1.4281C5.70057 1.2169 5.46955 0.9404 5.10233 0.7823C4.9699 0.725487 4.85432 0.698522 4.82045 0.691231C4.64561 0.65286 4.46778 0.645754 4.2869 0.667501C3.86924 0.717126 3.49988 0.880035 3.15645 1.1055C3.01848 1.19615 2.89009 1.29875 2.76636 1.40896C2.36971 1.76198 2.09871 2.19396 1.95217 2.7073C1.89666 2.90168 1.87742 3.10278 1.86394 3.30612C1.84697 3.56148 1.87573 3.81474 1.91022 4.0678C1.94041 4.28645 1.99494 4.50165 2.05574 4.71488C2.10782 4.89751 2.17308 5.07678 2.23593 5.25601C2.35171 5.58446 2.49111 5.90403 2.64245 6.21842C2.74889 6.43947 2.85982 6.6591 2.97521 6.8761C3.21195 7.32137 3.45315 7.76402 3.69167 8.20812C3.83391 8.47324 3.97196 8.74008 4.11628 9.00374C4.24344 9.23663 4.36223 9.47298 4.46819 9.716C4.59403 10.0049 4.68451 10.3027 4.72702 10.6117C4.7477 10.7599 4.75486 10.9095 4.7189 11.0566C4.65589 11.3144 4.49628 11.4839 4.25549 11.5833C4.08251 11.6549 3.90123 11.6869 3.71164 11.6946C3.39595 11.7074 3.09055 11.6454 2.78816 11.5533C2.50881 11.4683 2.2491 11.3409 2.00816 11.1721C1.88265 11.0844 1.77042 10.9822 1.68026 10.8849L1.68236 10.8847Z" fill="white"></path>
  </symbol>
  <symbol fill="none" xmlns="http://www.w3.org/2000/svg" viewBox="0 0 30 30" id="user">
    <path d="M14.95 15.5582C12.5909 15.5582 10.6709 13.6382 10.6709 11.2791C10.6709 8.92001 12.5909 7 14.95 7C17.3091 7 19.2291 8.92001 19.2291 11.2791C19.2291 13.6382 17.3091 15.5582 14.95 15.5582ZM14.95 8.11628C13.2086 8.11628 11.7872 9.53768 11.7872 11.2791C11.7872 13.0205 13.2086 14.4419 14.95 14.4419C16.6914 14.4419 18.1128 13.0205 18.1128 11.2791C18.1128 9.53768 16.6914 8.11628 14.95 8.11628Z" fill="#4B4B4B"></path>
    <path d="M21.3433 22.9999C21.0382 22.9999 20.7852 22.7469 20.7852 22.4418C20.7852 19.8743 18.1656 17.7906 14.9507 17.7906C11.7358 17.7906 9.11628 19.8743 9.11628 22.4418C9.11628 22.7469 8.86326 22.9999 8.55814 22.9999C8.25302 22.9999 8 22.7469 8 22.4418C8 19.2641 11.1181 16.6743 14.9507 16.6743C18.7833 16.6743 21.9014 19.2641 21.9014 22.4418C21.9014 22.7469 21.6484 22.9999 21.3433 22.9999Z" fill="#4B4B4B"></path>
  </symbol>
  <symbol fill="none" xmlns="http://www.w3.org/2000/svg" viewBox="0 0 31 31" id="vk">
    <path fill-rule="evenodd" clip-rule="evenodd" d="M20.5422 0.9375H11.3326C2.92756 0.9375 0.937439 2.92762 0.937439 11.3327V20.5423C0.937439 28.9474 2.92756 30.9375 11.3326 30.9375H20.5422C28.9473 30.9375 30.9374 28.9474 30.9374 20.5423V11.3327C30.9374 2.92762 28.9473 0.9375 20.5422 0.9375ZM24.8401 10.4647C25.4964 10.4647 25.6446 10.8034 25.4964 11.2692C25.2651 12.3366 23.3444 15.1682 22.7495 16.0453C22.6365 16.2119 22.5713 16.308 22.5747 16.308C22.3418 16.6891 22.2571 16.8585 22.5747 17.2819C22.6895 17.4384 22.933 17.6773 23.2112 17.9503C23.4973 18.2311 23.8203 18.548 24.0779 18.8486C25.0094 19.9072 25.7293 20.7964 25.9198 21.4103C26.0892 22.0243 25.7928 22.3419 25.1576 22.3419H22.977C22.3991 22.3419 22.1012 22.01 21.4663 21.3027C21.1941 20.9994 20.86 20.6271 20.4152 20.1824C19.1238 18.9333 18.5521 18.7639 18.2346 18.7639C17.79 18.7639 17.6629 18.8698 17.6629 19.5049V21.4738C17.6629 22.0031 17.4936 22.3207 16.0962 22.3207C13.7886 22.3207 11.2268 20.9234 9.42723 18.3193C6.71728 14.5084 5.97627 11.6291 5.97627 11.0575C5.97627 10.7399 6.08213 10.4435 6.71727 10.4435H8.91911C9.46957 10.4435 9.68128 10.6764 9.893 11.2904C10.9727 14.4026 12.7723 17.1337 13.5133 17.1337C13.7886 17.1337 13.9156 17.0067 13.9156 16.308V13.0899C13.8633 12.1752 13.5449 11.7767 13.3088 11.4812C13.1623 11.2979 13.0476 11.1542 13.0476 10.9516C13.0476 10.6976 13.2593 10.4435 13.598 10.4435H17.0278C17.4936 10.4435 17.6629 10.6976 17.6629 11.248V15.5882C17.6629 16.0539 17.8535 16.2233 18.0017 16.2233C18.2769 16.2233 18.5098 16.0539 19.0179 15.5458C20.5846 13.7886 21.7067 11.0786 21.7067 11.0786C21.8549 10.7611 22.1089 10.4647 22.6594 10.4647H24.8401Z" fill="#4B4B4B"></path>
  </symbol>
  <symbol fill="none" xmlns="http://www.w3.org/2000/svg" viewBox="0 0 16 16" id="plus">
    <path d="M8.61539 0.615385C8.61539 0.276923 8.33846 0 8 0C7.66154 0 7.38462 0.276923 7.38462 0.615385V7.38462H0.615385C0.276923 7.38462 0 7.66154 0 8C0 8.33846 0.276923 8.61539 0.615385 8.61539H7.38462V15.3846C7.38462 15.7231 7.66154 16 8 16C8.33846 16 8.61539 15.7231 8.61539 15.3846V8.61539H15.3846C15.7231 8.61539 16 8.33846 16 8C16 7.66154 15.7231 7.38462 15.3846 7.38462H8.61539V0.615385Z" fill="white"></path>
  </symbol>
</svg>