<svg width="30" height="30" viewBox="0 0 30 30" fill="none" xmlns="http://www.w3.org/2000/svg">
<path d="M14.95 15.5582C12.5909 15.5582 10.6709 13.6382 10.6709 11.2791C10.6709 8.92001 12.5909 7 14.95 7C17.3091 7 19.2291 8.92001 19.2291 11.2791C19.2291 13.6382 17.3091 15.5582 14.95 15.5582ZM14.95 8.11628C13.2086 8.11628 11.7872 9.53768 11.7872 11.2791C11.7872 13.0205 13.2086 14.4419 14.95 14.4419C16.6914 14.4419 18.1128 13.0205 18.1128 11.2791C18.1128 9.53768 16.6914 8.11628 14.95 8.11628Z" fill="#4B4B4B"/>
<path d="M21.3433 22.9999C21.0382 22.9999 20.7852 22.7469 20.7852 22.4418C20.7852 19.8743 18.1656 17.7906 14.9507 17.7906C11.7358 17.7906 9.11628 19.8743 9.11628 22.4418C9.11628 22.7469 8.86326 22.9999 8.55814 22.9999C8.25302 22.9999 8 22.7469 8 22.4418C8 19.2641 11.1181 16.6743 14.9507 16.6743C18.7833 16.6743 21.9014 19.2641 21.9014 22.4418C21.9014 22.7469 21.6484 22.9999 21.3433 22.9999Z" fill="#4B4B4B"/>
</svg>
